PathFileType	4	(X/Y/Z)	C:/Users/opensim2020/Desktop/walking_exp_matlab/subject06_walking21_straight_03.trc																																																																																																																																		
DataRate	CameraRate	NumFrames	NumMarkers	Units	OrigDataRate	OrigDataStartFrame	OrigNumFrames																																																																																																																														
100	100	4	44	mm	100	1848	110																																																																																																																														
Frame#	Time	LFHD			RFHD			LBHD			RBHD			C7			T10			CLAV			STRN			RBAK			LSHO			LUPA			LELB			LFRM			LWRA			LWRB			LFIN			RSHO			RUPA			RELB			RFRM			RWRA			RWRB			RFIN			LASI			RASI			LPSI			RPSI			LTHI			LKNE			LTIB			LANK			LHEE			LTOE			RTHI			RKNE			RTIB			RANK			RHEE			RTOE			*39			*40			*41			*42			*43		
		X1	Y1	Z1	X2	Y2	Z2	X3	Y3	Z3	X4	Y4	Z4	X5	Y5	Z5	X6	Y6	Z6	X7	Y7	Z7	X8	Y8	Z8	X9	Y9	Z9	X10	Y10	Z10	X11	Y11	Z11	X12	Y12	Z12	X13	Y13	Z13	X14	Y14	Z14	X15	Y15	Z15	X16	Y16	Z16	X17	Y17	Z17	X18	Y18	Z18	X19	Y19	Z19	X20	Y20	Z20	X21	Y21	Z21	X22	Y22	Z22	X23	Y23	Z23	X24	Y24	Z24	X25	Y25	Z25	X26	Y26	Z26	X27	Y27	Z27	X28	Y28	Z28	X29	Y29	Z29	X30	Y30	Z30	X31	Y31	Z31	X32	Y32	Z32	X33	Y33	Z33	X34	Y34	Z34	X35	Y35	Z35	X36	Y36	Z36	X37	Y37	Z37	X38	Y38	Z38	X39	Y39	Z39	X40	Y40	Z40	X41	Y41	Z41	X42	Y42	Z42	X43	Y43	Z43	X44	Y44	Z44
																																																																																																																																					
83	0.82	331.54654	1637.28369	-1085.16809	317.08789	1616.66797	-955.43793	201.91272	1579.83398	-1105.51489	188.46376	1564.03723	-977.9198	198.25313	1420.42358	-1052.4364	156.72714	1092.41479	-1045.21521	308.49338	1342.03076	-1048.97961	345.71536	1166.88171	-1061.97351	119.07336	1249.38452	-984.49158	256.65353	1379.54041	-1210.44556	283.54398	1189.34302	-1300.50488	307.83322	1081.81042	-1324.74402	419.32944	985.03705	-1328.54456	528.49402	948.17078	-1260.92212	501.45322	900.72021	-1305.1001	587.96832	882.53302	-1291.24158	252.88675	1370.81946	-888.92035	164.47661	1187.2063	-812.98224	140.92444	1067.91895	-799.22461	112.01469	951.86273	-777.65741	122.07183	797.26208	-791.11017	64.90917	822.45117	-765.08337	66.05025	737.93225	-756.30634	323.27805	929.77875	-1166.1615	343.52524	938.67084	-946.24963	167.94008	959.44019	-1118.16724	191.40515	958.3786	-951.65619	204.24997	626.19904	-1212.06824	166.47099	464.25357	-1189.60962	10.45201	254.57875	-1175.23267	-79.29059	108.32484	-1127.18262	-121.59524	113.9643	-1081.32153	41.97599	32.96116	-1126.25281	369.80313	613.13055	-881.58087	422.29712	502.16122	-915.849	469.3074	243.10104	-924.72382	528.26929	66.78873	-972.20056	503.3699	33.61612	-1021.34735	681.24347	79.78221	-963.64532	223.89905	1668.39502	-1036.2688	349.03958	1540.81372	-1044.99683	NaN	NaN	NaN	NaN	NaN	NaN	NaN	NaN	NaN
84	0.83	345.81192	1636.98535	-1083.37244	331.53458	1616.23413	-953.70325	216.31854	1579.31445	-1103.74805	202.95596	1563.42285	-976.11072	213.23097	1419.60522	-1050.49146	172.89268	1091.8728	-1043.63403	323.85324	1341.83484	-1047.28528	361.92126	1166.9397	-1060.56177	135.02956	1248.61511	-982.6792	271.2742	1379.10364	-1208.521	298.24945	1189.11011	-1298.53418	322.41544	1081.66479	-1322.74951	434.40631	985.73456	-1326.82849	544.33978	950.41534	-1259.6637	517.50549	902.22131	-1303.49146	604.14545	885.22449	-1289.89673	268.42365	1370.42566	-887.1449	180.73573	1186.58252	-811.11877	157.47643	1067.22827	-797.52722	128.69913	951.2168	-775.84552	138.53606	796.61084	-789.57507	81.44698	821.84198	-763.32355	82.38586	737.27911	-754.65106	339.88916	929.73608	-1165.17102	360.51135	938.95703	-945.42969	185.11723	958.96686	-1117.021	208.33971	958.08087	-950.73871	222.09903	624.83698	-1212.10461	185.81044	462.38974	-1190.44031	22.40801	258.53079	-1176.11487	-73.47263	116.24097	-1129.09106	-115.27792	124.35886	-1083.47705	42.78	32.94147	-1126.36475	388.95688	614.23547	-882.5589	440.61575	503.69092	-918.22266	480.35828	240.97578	-925.57959	532.19275	63.30817	-974.39301	506.52109	32.43976	-1023.32477	685.82501	69.79146	-966.56158	238.29465	1667.89038	-1034.34387	363.60858	1540.70691	-1043.10742	NaN	NaN	NaN	NaN	NaN	NaN	NaN	NaN	NaN
85	0.84	360.08188	1637.09998	-1081.67615	346.04047	1616.21936	-951.88367	230.63129	1578.97241	-1101.85876	217.59586	1563.11938	-974.19305	228.15294	1419.1001	-1048.33179	189.34903	1091.23254	-1041.92871	339.31305	1341.99133	-1045.48853	378.35913	1167.31152	-1058.94348	150.94417	1247.92639	-980.7171	285.89178	1378.95703	-1206.50574	312.68323	1188.71521	-1296.08813	336.72565	1081.6261	-1320.5752	449.082	986.09393	-1325.2655	559.30078	951.57782	-1258.43823	532.28198	902.7572	-1301.37451	619.42273	886.82043	-1288.81775	284.02933	1370.33826	-885.21045	197.09125	1186.21045	-809.11316	174.25156	1066.73938	-795.56464	145.51117	950.7066	-773.95978	155.29105	795.81696	-788.73608	98.88282	821.14844	-761.54755	99.84188	736.54999	-753.02295	356.8718	929.92151	-1164.36877	377.32117	939.19794	-944.59491	201.33998	958.539	-1115.80676	225.20464	958.25079	-949.05115	240.72758	623.30066	-1212.23486	206.61078	460.28235	-1191.32593	35.64199	262.98914	-1176.76013	-66.14487	125.09254	-1130.63672	-106.98352	136.01556	-1085.01855	43.49056	32.79747	-1126.31982	407.6665	615.34009	-884.04413	457.63293	504.28708	-920.26019	490.84219	240.07816	-928.13806	538.72784	64.1245	-974.95319	511.04562	36.57955	-1023.92822	693.76495	59.92761	-966.0835	252.3709	1667.57153	-1032.4342	378.51352	1540.76282	-1041.46704	NaN	NaN	NaN	NaN	NaN	NaN	NaN	NaN	NaN
86	0.85	374.20944	1638.04187	-1079.86597	360.39795	1617.08447	-949.97174	244.99211	1579.1626	-1099.88269	232.18423	1563.05164	-972.21112	243.25673	1419.56653	-1046.07605	205.73242	1091.12842	-1040.98621	354.75125	1342.81458	-1043.61511	394.17374	1168.17822	-1057.22278	166.64169	1247.30774	-978.53943	300.38214	1379.25208	-1204.6405	327.12866	1188.64136	-1293.80188	350.70218	1081.54395	-1318.1991	462.81238	985.98193	-1323.22205	573.61383	951.82684	-1257.32849	546.44757	902.71429	-1299.87573	633.74072	887.32977	-1287.96716	299.69043	1370.72266	-883.13617	213.65129	1186.06714	-806.97766	191.5937	1066.32422	-793.70001	163.40996	950.14081	-771.99432	173.91473	795.55414	-786.83459	117.05258	820.44452	-759.81165	118.44419	735.90808	-751.44586	373.95352	930.30786	-1163.72815	394.35132	940.10455	-943.92609	218.01959	958.17743	-1114.86121	241.9588	959.29694	-947.60535	260.10547	621.69183	-1212.51001	228.82968	458.13492	-1192.14929	50.13814	268.44128	-1177.38843	-57.16805	135.47026	-1131.74768	-96.26507	148.91034	-1086.47302	44.12609	32.7525	-1125.92969	424.91971	617.11499	-884.03235	473.70123	505.69138	-919.37921	504.52072	242.04114	-925.69556	547.14307	65.66574	-972.55188	515.73694	38.91859	-1021.01477	699.9306	55.18227	-964.50439	266.38849	1667.88	-1030.45471	NaN	NaN	NaN	NaN	NaN	NaN	NaN	NaN	NaN	NaN	NaN	NaN
